<?xml version="1.0" standalone="no"?><!DOCTYPE svg PUBLIC "-//W3C//DTD SVG 1.1//EN" "http://www.w3.org/Graphics/SVG/1.1/DTD/svg11.dtd"><svg t="1647487470801" class="icon" viewBox="0 0 1024 1024" version="1.1" xmlns="http://www.w3.org/2000/svg" p-id="2230" xmlns:xlink="http://www.w3.org/1999/xlink" width="64" height="64"><defs><style type="text/css"></style></defs><path d="M542.72 324.096H481.28v0.512h61.44v-0.512z m245.76 245.76h184.32v-61.44h-184.32V379.392c73.728-18.432 153.6-73.728 153.6-208.896h-61.44c0 147.456-135.168 153.6-153.6 153.6h-184.32v455.68H481.28v-455.68H296.96c-6.656 0-153.6 0-153.6-153.6H81.92c0 128.512 79.872 184.32 153.6 208.896v128.512H51.2v61.44h184.32v92.16c0 37.376 6.656 68.096 18.432 98.816-73.216 12.288-172.032 68.096-172.032 208.896h61.44c0-128.512 98.816-147.456 141.312-153.6 49.152 73.728 135.168 122.88 227.328 122.88 98.816 0 178.176-49.152 227.328-122.88 37.376 6.656 141.312 24.576 141.312 153.6h61.44c0-141.312-98.816-196.608-172.032-208.896 12.288-30.72 18.432-61.44 18.432-98.816v-91.648zM512 55.296c-116.736 0-215.04 98.816-215.04 215.04h430.08c0-116.736-98.304-215.04-215.04-215.04z m-141.312 153.6c25.088-55.296 79.872-92.16 141.312-92.16s116.736 37.376 141.312 92.16H370.688z" p-id="2231"></path></svg>