<?xml version="1.0" standalone="no"?><!DOCTYPE svg PUBLIC "-//W3C//DTD SVG 1.1//EN" "http://www.w3.org/Graphics/SVG/1.1/DTD/svg11.dtd"><svg t="1645150901735" class="icon" viewBox="0 0 1024 1024" version="1.1" xmlns="http://www.w3.org/2000/svg" p-id="1486" xmlns:xlink="http://www.w3.org/1999/xlink" width="32" height="32"><defs><style type="text/css"></style></defs><path d="M170.667 640v181.333c0 16.634 12.69 30.303 28.918 31.854l3.082 0.146H384v64H202.667c-53.02 0-96-42.98-96-96V640h64z m746.666 0v181.333c0 53.02-42.98 96-96 96H640v-64h181.333c16.634 0 30.303-12.69 31.854-28.918l0.146-3.082V640h64zM655.307 373.425c43.276 43.276 45.68 111.946 7.213 158.044l0.33 0.348L512 682.667l-150.85-150.85 0.344-0.332c-38.482-46.097-36.082-114.779 7.199-158.06 38.872-38.871 98.232-44.767 143.32-17.687 45.062-27.08 104.422-21.184 143.294 17.687z m-107.175 35.418l-3.154 1.752-32.957 19.806-32.962-19.798c-20.751-12.464-47.706-9.328-65.111 8.077-18.694 18.694-20.717 48.082-5.504 68.994l3.688 4.615 99.862 99.862 99.862-99.862 1.525-1.825c16.775-20.102 16.292-49.546-0.883-69.17l-2.446-2.614c-16.533-16.533-41.68-20.19-61.92-9.837z m273.201-302.176c53.02 0 96 42.98 96 96V384h-64V202.667c0-16.634-12.69-30.303-28.918-31.854l-3.082-0.146H640v-64h181.333z m-437.333 0v64H202.667c-16.634 0-30.303 12.69-31.854 28.918l-0.146 3.082V384h-64V202.667c0-53.02 42.98-96 96-96H384z" p-id="1487"></path></svg>