<?xml version="1.0" standalone="no"?><!DOCTYPE svg PUBLIC "-//W3C//DTD SVG 1.1//EN" "http://www.w3.org/Graphics/SVG/1.1/DTD/svg11.dtd"><svg t="1646305214698" class="icon" viewBox="0 0 1024 1024" version="1.1" xmlns="http://www.w3.org/2000/svg" p-id="3012" xmlns:xlink="http://www.w3.org/1999/xlink" width="32" height="32"><defs><style type="text/css"></style></defs><path d="M955.824783 455.083709C691.517071 299.591309 584.747349 149.632949 548.102754 113.561405c-36.69883-36.071543-68.490907 0-68.490907 0C266.94426 409.387971 75.706751 455.083709 75.706751 455.083709c-46.460148 45.695738 77.54205 52.40351 77.54205 52.40351 49.349965 159.364591 44.660152 418.98249 44.660152 418.98249l625.898073 0c30.700209-355.809705 59.329247-421.87333 59.329247-421.87333C980.908064 504.597403 955.824783 455.083709 955.824783 455.083709L955.824783 455.083709zM736.668411 825.561485 291.701107 825.561485c-10.796904-263.489066-38.880519-346.374822-38.880519-346.374822 125.255749-57.338916 259.673158-235.843426 259.673158-235.843426 96.845699 109.35971 275.977495 225.235834 275.977495 225.235834C751.937163 591.354326 736.668411 825.561485 736.668411 825.561485L736.668411 825.561485z" p-id="3013"></path></svg>