<?xml version="1.0" standalone="no"?><!DOCTYPE svg PUBLIC "-//W3C//DTD SVG 1.1//EN" "http://www.w3.org/Graphics/SVG/1.1/DTD/svg11.dtd"><svg t="1646295109029" class="icon" viewBox="0 0 1024 1024" version="1.1" xmlns="http://www.w3.org/2000/svg" p-id="1948" xmlns:xlink="http://www.w3.org/1999/xlink" width="200" height="200"><defs><style type="text/css"></style></defs><path d="M897.471 179.996c97.007 219.903 4.298 451.677-163.111 526.99-0.921-8.697-2.047-17.19-3.275-25.684 23.229-11.256 44.82-25.786 64.365-43.08 42.568-37.657 75.825-88.514 95.677-146.739 30.596-89.64 29.777-196.88-16.373-301.357-161.986-12.79-248.863 49.118-295.729 122.487-6.242 9.824-11.87 19.954-16.884 30.085-6.242-5.935-12.484-11.666-18.93-17.294 46.968-90.56 141.417-175.084 333.487-160.144 9.312 0.717 16.987 6.14 20.773 14.736z" fill="" p-id="1949"></path><path d="M665.083 478.18c80.635-92.607 202.815-251.727 240.165-403.071 1.637-6.651 8.39-10.642 14.94-9.005 6.651 1.637 10.642 8.391 9.107 14.94C889.694 241.188 759.123 408.7 677.158 501.921c-3.888-8.084-7.88-15.964-12.075-23.74z" fill="" p-id="1950"></path><path d="M697.112 959.124C-3.53 857.614 103.607 321.31 130.008 221.336c2.66-10.028 10.642-17.089 20.978-18.317C472.296 164.442 811.31 447.38 725.15 938.76c-2.354 13.303-14.838 22.308-28.038 20.364z m-126.58-50.653c39.499 10.438 82.579 19.238 129.343 25.992l0.819 0.102c14.735-84.114 16.679-161.781 8.288-232.388-16.168-133.948-69.89-242.927-145-322.641-74.904-79.51-171.092-130.162-272.602-147.967a469.15 469.15 0 0 0-137.53-3.786c-3.785 14.326-9.311 38.168-13.711 68.662-11.461 79.407-15.35 203.531 39.191 321.823 54.337 117.985 167.614 231.16 391.202 290.203z" fill="" p-id="1951"></path><path d="M84.472 118.19a12.41 12.41 0 0 1 6.651-16.27 12.41 12.41 0 0 1 16.27 6.65c0.41 1.024 143.67 347.815 438.17 600.668 5.22 4.4 5.833 12.28 1.331 17.396-4.4 5.219-12.28 5.832-17.396 1.33C230.29 471.222 84.881 119.11 84.472 118.189z" fill="" p-id="1952"></path></svg>