<?xml version="1.0" standalone="no"?><!DOCTYPE svg PUBLIC "-//W3C//DTD SVG 1.1//EN" "http://www.w3.org/Graphics/SVG/1.1/DTD/svg11.dtd"><svg t="1647259850388" class="icon" viewBox="0 0 1024 1024" version="1.1" xmlns="http://www.w3.org/2000/svg" p-id="1763" xmlns:xlink="http://www.w3.org/1999/xlink" width="32" height="32"><defs><style type="text/css"></style></defs><path d="M513.7 241.6c22.1 0 40-17.9 40-40v-60.9c0-22.1-17.9-40-40-40s-40 17.9-40 40v60.9c0 22.1 17.9 40 40 40zM238.1 241.6c22.1 0 40-17.9 40-40v-60.9c0-22.1-17.9-40-40-40s-40 17.9-40 40v60.9c0 22.1 17.9 40 40 40zM790.8 241.6c22.1 0 40-17.9 40-40v-60.9c0-22.1-17.9-40-40-40s-40 17.9-40 40v60.9c0 22.1 17.9 40 40 40z" p-id="1764"></path><path d="M927.5 174.4h-56.6v27.2c0 44.1-35.9 80-80 80s-80-35.9-80-80v-27.2H593.7v27.2c0 44.1-35.9 80-80 80s-80-35.9-80-80v-27.2H318.1v27.2c0 44.1-35.9 80-80 80s-80-35.9-80-80v-27.2h-57.4c-17.1 0-31 13.9-31 31V896c0 17.1 13.9 31 31 31h826.8c17.1 0 31-13.9 31-31V205.4c0-17.1-13.9-31-31-31zM442.9 635.9c-30.6 30.6-64.4 51.2-92.4 58.7v97.9c0 22.1-17.9 40-40 40s-40-17.9-40-40V685.8c-30.4-14.8-64.5-52-89.4-101.5-38.1-75.6-5.5-168.9-5.5-168.9s94.5 29.2 132.7 104.8c9 17.8 16 35.6 21 52.7 7.1-9.1 15-18.1 23.7-26.9 53.4-53.4 141.7-51.8 141.7-51.8s1.6 88.3-51.8 141.7z m419.6 143.8c0 22.1-17.9 40-40 40H602.1c-22.1 0-40-17.9-40-40s17.9-40 40-40h220.4c22 0 40 17.9 40 40z m0-164.1c0 22.1-17.9 40-40 40H602.1c-22.1 0-40-17.9-40-40s17.9-40 40-40h220.4c22 0 40 17.9 40 40z m0-164.1c0 22.1-17.9 40-40 40H602.1c-22.1 0-40-17.9-40-40s17.9-40 40-40h220.4c22 0 40 17.9 40 40z" p-id="1765"></path></svg>