<?xml version="1.0" standalone="no"?><!DOCTYPE svg PUBLIC "-//W3C//DTD SVG 1.1//EN" "http://www.w3.org/Graphics/SVG/1.1/DTD/svg11.dtd"><svg t="1648885486311" class="icon" viewBox="0 0 1024 1024" version="1.1" xmlns="http://www.w3.org/2000/svg" p-id="1674" data-spm-anchor-id="a313x.7781069.0.i1" xmlns:xlink="http://www.w3.org/1999/xlink" width="200" height="200"><defs><style type="text/css">@font-face { font-family: feedback-iconfont; src: url("//at.alicdn.com/t/font_1031158_u69w8yhxdu.woff2?t=1630033759944") format("woff2"), url("//at.alicdn.com/t/font_1031158_u69w8yhxdu.woff?t=1630033759944") format("woff"), url("//at.alicdn.com/t/font_1031158_u69w8yhxdu.ttf?t=1630033759944") format("truetype"); }
</style></defs><path d="M292.335484 603.829677a732.424258 732.424258 0 0 0 124.531613 344.856775 476.060903 476.060903 0 0 0 64.08258 72.340645 77.427613 77.427613 0 0 1-28.738064 0.990968 355.394065 355.394065 0 0 1-130.477419-29.068388 228.285935 228.285935 0 0 1-131.138065-173.089032 572.845419 572.845419 0 0 1 0.990968-204.139355 1445.656774 1445.656774 0 0 1 64.412903-249.063225c5.945806 12.221935 8.91871 24.443871 15.525161 35.344516a340.826839 340.826839 0 0 0 66.064516 74.983225c43.272258 39.63871 90.178065 75.313548 131.79871 116.934194a364.213677 364.213677 0 0 1 105.703226 164.500645 290.320516 290.320516 0 0 1-18.167742 186.632258c-5.945806 14.203871-13.543226 27.747097-19.489032 41.950968-3.963871 9.249032-7.597419 9.909677-15.194839 3.303226a586.058323 586.058323 0 0 1-107.354839-117.594839 819.398194 819.398194 0 0 1-119.246451-268.882581 137.645419 137.645419 0 0 0-6.936775-33.032258 93.018839 93.018839 0 0 0 3.633549 33.032258z m415.545806 104.712258a462.881032 462.881032 0 0 0 19.15871-157.894193 638.942968 638.942968 0 0 0-39.969032-183.989677c-0.990968-2.312258-0.660645-5.615484-5.285162-4.954839 3.303226 18.167742 7.597419 36.335484 10.24 54.503226a551.63871 551.63871 0 0 1-23.783225 284.407742c-4.294194 10.900645-7.267097 12.552258-17.176775 5.615483a259.765677 259.765677 0 0 1-101.078709-118.585806 255.207226 255.207226 0 0 1-0.990968-160.867097c13.543226-51.530323 35.674839-100.087742 53.181936-150.296774a323.716129 323.716129 0 0 0 15.194838-58.467097 128.132129 128.132129 0 0 0-1.651613-47.236129 396.387097 396.387097 0 0 1 41.620645 38.647742 757.660903 757.660903 0 0 1 157.233549 205.460645 231.225806 231.225806 0 0 1 26.425806 131.79871 187.028645 187.028645 0 0 1-66.725161 118.585806 264.819613 264.819613 0 0 1-65.073548 44.593549 4.987871 4.987871 0 0 1-1.321291-1.321291zM355.427097 161.858065a498.787097 498.787097 0 0 0 22.131613 147.984516 367.781161 367.781161 0 0 0 73.331613 133.780645c-70.028387-9.909677-131.468387-28.407742-163.179355-96.784516a213.916903 213.916903 0 0 1-14.203871-113.961291A762.846968 762.846968 0 0 1 345.847742 0c12.552258 49.87871 48.887742 80.59871 80.929032 114.621935a602.078968 602.078968 0 0 1 74.652903 91.499355c45.584516 76.304516 32.701935 147.654194-13.543225 217.682581-5.285161 7.927742-7.927742 2.312258-11.561291-0.990968a404.083613 404.083613 0 0 1-82.910967-129.156129A590.154323 590.154323 0 0 1 355.427097 161.858065z" p-id="1675" data-spm-anchor-id="a313x.7781069.0.i0" class="selected" fill="#4eb250"></path></svg>